G04*
G04 #@! TF.GenerationSoftware,Altium Limited,Altium Designer,23.0.1 (38)*
G04*
G04 Layer_Color=2752767*
%FSLAX44Y44*%
%MOMM*%
G71*
G04*
G04 #@! TF.SameCoordinates,818DB00E-17B0-4730-80CA-65758AE2E887*
G04*
G04*
G04 #@! TF.FilePolarity,Positive*
G04*
G01*
G75*
%ADD13C,0.1270*%
%ADD48C,0.1693*%
D13*
X975360Y734060D02*
X977900Y739140D01*
X975360Y744220D01*
X980440Y741680D01*
X985520Y744220D01*
X982980Y739140D01*
X985520Y734060D01*
X980440Y736600D01*
X975360Y734060D01*
Y759460D02*
X977900Y764540D01*
X975360Y769620D01*
X980440Y767080D01*
X985520Y769620D01*
X982980Y764540D01*
X985520Y759460D01*
X980440Y762000D01*
X975360Y759460D01*
Y784860D02*
X977900Y789940D01*
X975360Y795020D01*
X980440Y792480D01*
X985520Y795020D01*
X982980Y789940D01*
X985520Y784860D01*
X980440Y787400D01*
X975360Y784860D01*
Y810260D02*
X977900Y815340D01*
X975360Y820420D01*
X980440Y817880D01*
X985520Y820420D01*
X982980Y815340D01*
X985520Y810260D01*
X980440Y812800D01*
X975360Y810260D01*
Y835660D02*
X977900Y840740D01*
X975360Y845820D01*
X980440Y843280D01*
X985520Y845820D01*
X982980Y840740D01*
X985520Y835660D01*
X980440Y838200D01*
X975360Y835660D01*
Y861060D02*
X977900Y866140D01*
X975360Y871220D01*
X980440Y868680D01*
X985520Y871220D01*
X982980Y866140D01*
X985520Y861060D01*
X980440Y863600D01*
X975360Y861060D01*
X988060Y453390D02*
X982980Y463550D01*
X993140D01*
X988060Y453390D01*
Y478790D02*
X982980Y488950D01*
X993140D01*
X988060Y478790D01*
Y504190D02*
X982980Y514350D01*
X993140D01*
X988060Y504190D01*
Y529590D02*
X982980Y539750D01*
X993140D01*
X988060Y529590D01*
Y554990D02*
X982980Y565150D01*
X993140D01*
X988060Y554990D01*
Y580390D02*
X982980Y590550D01*
X993140D01*
X988060Y580390D01*
Y605790D02*
X982980Y615950D01*
X993140D01*
X988060Y605790D01*
Y631190D02*
X982980Y641350D01*
X993140D01*
X988060Y631190D01*
X972820Y1158240D02*
X975360Y1163320D01*
X972820Y1168400D01*
X977900Y1165860D01*
X982980Y1168400D01*
X980440Y1163320D01*
X982980Y1158240D01*
X977900Y1160780D01*
X972820Y1158240D01*
Y1132840D02*
X975360Y1137920D01*
X972820Y1143000D01*
X977900Y1140460D01*
X982980Y1143000D01*
X980440Y1137920D01*
X982980Y1132840D01*
X977900Y1135380D01*
X972820Y1132840D01*
Y1107440D02*
X975360Y1112520D01*
X972820Y1117600D01*
X977900Y1115060D01*
X982980Y1117600D01*
X980440Y1112520D01*
X982980Y1107440D01*
X977900Y1109980D01*
X972820Y1107440D01*
Y1082040D02*
X975360Y1087120D01*
X972820Y1092200D01*
X977900Y1089660D01*
X982980Y1092200D01*
X980440Y1087120D01*
X982980Y1082040D01*
X977900Y1084580D01*
X972820Y1082040D01*
Y1056640D02*
X975360Y1061720D01*
X972820Y1066800D01*
X977900Y1064260D01*
X982980Y1066800D01*
X980440Y1061720D01*
X982980Y1056640D01*
X977900Y1059180D01*
X972820Y1056640D01*
X350520Y896620D02*
Y906780D01*
X360680D01*
Y896620D01*
X350520D01*
X375920D02*
Y906780D01*
X386080D01*
Y896620D01*
X375920D01*
X401320D02*
Y906780D01*
X411480D01*
Y896620D01*
X401320D01*
X426720D02*
Y906780D01*
X436880D01*
Y896620D01*
X426720D01*
X452120D02*
Y906780D01*
X462280D01*
Y896620D01*
X452120D01*
X477520D02*
Y906780D01*
X487680D01*
Y896620D01*
X477520D01*
X502920D02*
Y906780D01*
X513080D01*
Y896620D01*
X502920D01*
X528320D02*
Y906780D01*
X538480D01*
Y896620D01*
X528320D01*
X553720D02*
Y906780D01*
X563880D01*
Y896620D01*
X553720D01*
X579120D02*
Y906780D01*
X589280D01*
Y896620D01*
X579120D01*
X604520D02*
Y906780D01*
X614680D01*
Y896620D01*
X604520D01*
X629920D02*
Y906780D01*
X640080D01*
Y896620D01*
X629920D01*
X655320D02*
Y906780D01*
X665480D01*
Y896620D01*
X655320D01*
X680720D02*
Y906780D01*
X690880D01*
Y896620D01*
X680720D01*
X706120D02*
Y906780D01*
X716280D01*
Y896620D01*
X706120D01*
Y1049020D02*
Y1059180D01*
X716280D01*
Y1049020D01*
X706120D01*
X680720D02*
Y1059180D01*
X690880D01*
Y1049020D01*
X680720D01*
X655320D02*
Y1059180D01*
X665480D01*
Y1049020D01*
X655320D01*
X629920D02*
Y1059180D01*
X640080D01*
Y1049020D01*
X629920D01*
X604520D02*
Y1059180D01*
X614680D01*
Y1049020D01*
X604520D01*
X579120D02*
Y1059180D01*
X589280D01*
Y1049020D01*
X579120D01*
X553720D02*
Y1059180D01*
X563880D01*
Y1049020D01*
X553720D01*
X528320D02*
Y1059180D01*
X538480D01*
Y1049020D01*
X528320D01*
X502920D02*
Y1059180D01*
X513080D01*
Y1049020D01*
X502920D01*
X477520D02*
Y1059180D01*
X487680D01*
Y1049020D01*
X477520D01*
X452120D02*
Y1059180D01*
X462280D01*
Y1049020D01*
X452120D01*
X426720D02*
Y1059180D01*
X436880D01*
Y1049020D01*
X426720D01*
X401320D02*
Y1059180D01*
X411480D01*
Y1049020D01*
X401320D01*
X375920D02*
Y1059180D01*
X386080D01*
Y1049020D01*
X375920D01*
X350520D02*
Y1059180D01*
X360680D01*
Y1049020D01*
X350520D01*
X323850Y838200D02*
X318770Y848360D01*
X328930D01*
X323850Y838200D01*
X349250D02*
X344170Y848360D01*
X354330D01*
X349250Y838200D01*
X374650D02*
X369570Y848360D01*
X379730D01*
X374650Y838200D01*
X400050D02*
X394970Y848360D01*
X405130D01*
X400050Y838200D01*
X425450D02*
X420370Y848360D01*
X430530D01*
X425450Y838200D01*
X450850D02*
X445770Y848360D01*
X455930D01*
X450850Y838200D01*
X614680Y1122680D02*
X609600Y1132840D01*
X619760D01*
X614680Y1122680D01*
X741680D02*
X736600Y1132840D01*
X746760D01*
X741680Y1122680D01*
X469900Y1112520D02*
X464820Y1122680D01*
X474980D01*
X469900Y1112520D01*
X444500D02*
X439420Y1122680D01*
X449580D01*
X444500Y1112520D01*
X419100D02*
X414020Y1122680D01*
X424180D01*
X419100Y1112520D01*
X449580Y759460D02*
X444500Y769620D01*
X454660D01*
X449580Y759460D01*
X424180D02*
X419100Y769620D01*
X429260D01*
X424180Y759460D01*
X398780D02*
X393700Y769620D01*
X403860D01*
X398780Y759460D01*
X373380D02*
X368300Y769620D01*
X378460D01*
X373380Y759460D01*
X347980D02*
X342900Y769620D01*
X353060D01*
X347980Y759460D01*
X322580D02*
X317500Y769620D01*
X327660D01*
X322580Y759460D01*
X297180D02*
X292100Y769620D01*
X302260D01*
X297180Y759460D01*
X327660Y1118160D02*
Y1115620D01*
X332740D01*
Y1118160D01*
X335280D01*
Y1123240D01*
X332740D01*
Y1125780D01*
X327660D01*
Y1123240D01*
X325120D01*
Y1118160D01*
X327660D01*
Y1153160D02*
Y1150620D01*
X332740D01*
Y1153160D01*
X335280D01*
Y1158240D01*
X332740D01*
Y1160780D01*
X327660D01*
Y1158240D01*
X325120D01*
Y1153160D01*
X327660D01*
X560070Y499110D02*
Y509270D01*
X570230D01*
Y499110D01*
X560070D01*
Y524510D02*
Y534670D01*
X570230D01*
Y524510D01*
X560070D01*
Y549910D02*
Y560070D01*
X570230D01*
Y549910D01*
X560070D01*
Y575310D02*
Y585470D01*
X570230D01*
Y575310D01*
X560070D01*
Y600710D02*
Y610870D01*
X570230D01*
Y600710D01*
X560070D01*
Y626110D02*
Y636270D01*
X570230D01*
Y626110D01*
X560070D01*
Y651510D02*
Y661670D01*
X570230D01*
Y651510D01*
X560070D01*
Y676910D02*
Y687070D01*
X570230D01*
Y676910D01*
X560070D01*
X788670D02*
Y687070D01*
X798830D01*
Y676910D01*
X788670D01*
Y651510D02*
Y661670D01*
X798830D01*
Y651510D01*
X788670D01*
Y626110D02*
Y636270D01*
X798830D01*
Y626110D01*
X788670D01*
Y600710D02*
Y610870D01*
X798830D01*
Y600710D01*
X788670D01*
Y575310D02*
Y585470D01*
X798830D01*
Y575310D01*
X788670D01*
Y549910D02*
Y560070D01*
X798830D01*
Y549910D01*
X788670D01*
Y524510D02*
Y534670D01*
X798830D01*
Y524510D01*
X788670D01*
Y499110D02*
Y509270D01*
X798830D01*
Y499110D01*
X788670D01*
X792480Y774700D02*
X795020Y777240D01*
X797560D01*
X795020Y779780D01*
X797560Y782320D01*
X795020D01*
X792480Y784860D01*
X789940Y782320D01*
X787400D01*
X789940Y779780D01*
X787400Y777240D01*
X789940D01*
X792480Y774700D01*
Y800100D02*
X795020Y802640D01*
X797560D01*
X795020Y805180D01*
X797560Y807720D01*
X795020D01*
X792480Y810260D01*
X789940Y807720D01*
X787400D01*
X789940Y805180D01*
X787400Y802640D01*
X789940D01*
X792480Y800100D01*
Y970280D02*
X787400Y980440D01*
X797560D01*
X792480Y970280D01*
Y843280D02*
X787400Y853440D01*
X797560D01*
X792480Y843280D01*
X426720Y960120D02*
X429260D01*
X431800Y962660D01*
X434340Y960120D01*
X436880D01*
Y962660D01*
X434340Y965200D01*
X436880Y967740D01*
Y970280D01*
X434340D01*
X431800Y967740D01*
X429260Y970280D01*
X426720D01*
Y967740D01*
X429260Y965200D01*
X426720Y962660D01*
Y960120D01*
X502920Y805180D02*
X505460D01*
X508000Y807720D01*
X510540Y805180D01*
X513080D01*
Y807720D01*
X510540Y810260D01*
X513080Y812800D01*
Y815340D01*
X510540D01*
X508000Y812800D01*
X505460Y815340D01*
X502920D01*
Y812800D01*
X505460Y810260D01*
X502920Y807720D01*
Y805180D01*
D48*
X791210Y1125474D02*
G03*
X791210Y1125474I-5080J0D01*
G01*
Y1165474D02*
G03*
X791210Y1165474I-5080J0D01*
G01*
M02*
