G04*
G04 #@! TF.GenerationSoftware,Altium Limited,Altium Designer,23.0.1 (38)*
G04*
G04 Layer_Physical_Order=2*
G04 Layer_Color=16711680*
%FSLAX44Y44*%
%MOMM*%
G71*
G04*
G04 #@! TF.SameCoordinates,818DB00E-17B0-4730-80CA-65758AE2E887*
G04*
G04*
G04 #@! TF.FilePolarity,Positive*
G04*
G01*
G75*
%ADD31C,1.0160*%
%ADD32R,1.5240X1.5240*%
G04:AMPARAMS|DCode=33|XSize=1.408mm|YSize=1.778mm|CornerRadius=0.352mm|HoleSize=0mm|Usage=FLASHONLY|Rotation=270.000|XOffset=0mm|YOffset=0mm|HoleType=Round|Shape=RoundedRectangle|*
%AMROUNDEDRECTD33*
21,1,1.4080,1.0740,0,0,270.0*
21,1,0.7040,1.7780,0,0,270.0*
1,1,0.7040,-0.5370,-0.3520*
1,1,0.7040,-0.5370,0.3520*
1,1,0.7040,0.5370,0.3520*
1,1,0.7040,0.5370,-0.3520*
%
%ADD33ROUNDEDRECTD33*%
%ADD34R,1.8000X1.8000*%
%ADD35C,1.8000*%
G04:AMPARAMS|DCode=36|XSize=1.524mm|YSize=1.778mm|CornerRadius=0.381mm|HoleSize=0mm|Usage=FLASHONLY|Rotation=0.000|XOffset=0mm|YOffset=0mm|HoleType=Round|Shape=RoundedRectangle|*
%AMROUNDEDRECTD36*
21,1,1.5240,1.0160,0,0,0.0*
21,1,0.7620,1.7780,0,0,0.0*
1,1,0.7620,0.3810,-0.5080*
1,1,0.7620,-0.3810,-0.5080*
1,1,0.7620,-0.3810,0.5080*
1,1,0.7620,0.3810,0.5080*
%
%ADD36ROUNDEDRECTD36*%
%ADD37C,1.6764*%
G04:AMPARAMS|DCode=38|XSize=1.7mm|YSize=1.778mm|CornerRadius=0.425mm|HoleSize=0mm|Usage=FLASHONLY|Rotation=180.000|XOffset=0mm|YOffset=0mm|HoleType=Round|Shape=RoundedRectangle|*
%AMROUNDEDRECTD38*
21,1,1.7000,0.9280,0,0,180.0*
21,1,0.8500,1.7780,0,0,180.0*
1,1,0.8500,-0.4250,0.4640*
1,1,0.8500,0.4250,0.4640*
1,1,0.8500,0.4250,-0.4640*
1,1,0.8500,-0.4250,-0.4640*
%
%ADD38ROUNDEDRECTD38*%
G04:AMPARAMS|DCode=39|XSize=1.408mm|YSize=1.778mm|CornerRadius=0.352mm|HoleSize=0mm|Usage=FLASHONLY|Rotation=0.000|XOffset=0mm|YOffset=0mm|HoleType=Round|Shape=RoundedRectangle|*
%AMROUNDEDRECTD39*
21,1,1.4080,1.0740,0,0,0.0*
21,1,0.7040,1.7780,0,0,0.0*
1,1,0.7040,0.3520,-0.5370*
1,1,0.7040,-0.3520,-0.5370*
1,1,0.7040,-0.3520,0.5370*
1,1,0.7040,0.3520,0.5370*
%
%ADD39ROUNDEDRECTD39*%
G04:AMPARAMS|DCode=40|XSize=2mm|YSize=2mm|CornerRadius=0.5mm|HoleSize=0mm|Usage=FLASHONLY|Rotation=270.000|XOffset=0mm|YOffset=0mm|HoleType=Round|Shape=RoundedRectangle|*
%AMROUNDEDRECTD40*
21,1,2.0000,1.0000,0,0,270.0*
21,1,1.0000,2.0000,0,0,270.0*
1,1,1.0000,-0.5000,-0.5000*
1,1,1.0000,-0.5000,0.5000*
1,1,1.0000,0.5000,0.5000*
1,1,1.0000,0.5000,-0.5000*
%
%ADD40ROUNDEDRECTD40*%
%ADD41C,1.6650*%
%ADD42R,1.6650X1.6650*%
%ADD43R,1.5080X1.5080*%
%ADD44C,1.5080*%
G04:AMPARAMS|DCode=45|XSize=1.524mm|YSize=1.778mm|CornerRadius=0.381mm|HoleSize=0mm|Usage=FLASHONLY|Rotation=270.000|XOffset=0mm|YOffset=0mm|HoleType=Round|Shape=RoundedRectangle|*
%AMROUNDEDRECTD45*
21,1,1.5240,1.0160,0,0,270.0*
21,1,0.7620,1.7780,0,0,270.0*
1,1,0.7620,-0.5080,-0.3810*
1,1,0.7620,-0.5080,0.3810*
1,1,0.7620,0.5080,0.3810*
1,1,0.7620,0.5080,-0.3810*
%
%ADD45ROUNDEDRECTD45*%
%ADD46C,1.2700*%
G36*
X1092200Y281940D02*
X254000D01*
X254000Y1216660D01*
X1092200D01*
X1092200Y281940D01*
D02*
G37*
%LPC*%
G36*
X784860Y1176396D02*
X784692D01*
X781914Y1175652D01*
X779424Y1174214D01*
X777390Y1172180D01*
X775952Y1169690D01*
X775208Y1166912D01*
Y1166744D01*
X784860D01*
Y1176396D01*
D02*
G37*
G36*
X335200Y1168305D02*
X331470D01*
Y1156970D01*
X342805D01*
Y1160700D01*
X342546Y1162668D01*
X341786Y1164502D01*
X340578Y1166078D01*
X339002Y1167286D01*
X337168Y1168046D01*
X335200Y1168305D01*
D02*
G37*
G36*
X328930D02*
X325200D01*
X323232Y1168046D01*
X321398Y1167286D01*
X319822Y1166078D01*
X318614Y1164502D01*
X317854Y1162668D01*
X317595Y1160700D01*
Y1156970D01*
X328930D01*
Y1168305D01*
D02*
G37*
G36*
X784860Y1164204D02*
X775208D01*
Y1164036D01*
X775952Y1161258D01*
X777390Y1158768D01*
X779424Y1156734D01*
X781914Y1155296D01*
X784692Y1154552D01*
X784860D01*
Y1164204D01*
D02*
G37*
G36*
X342805Y1154430D02*
X331470D01*
Y1143095D01*
X335200D01*
X337168Y1143354D01*
X339002Y1144114D01*
X340578Y1145322D01*
X341786Y1146898D01*
X342546Y1148732D01*
X342805Y1150700D01*
Y1154430D01*
D02*
G37*
G36*
X328930D02*
X317595D01*
Y1150700D01*
X317854Y1148732D01*
X318614Y1146898D01*
X319822Y1145322D01*
X321398Y1144114D01*
X323232Y1143354D01*
X325200Y1143095D01*
X328930D01*
Y1154430D01*
D02*
G37*
G36*
X988060Y1148080D02*
X979170D01*
Y1139190D01*
X988060D01*
Y1148080D01*
D02*
G37*
G36*
Y1136650D02*
X979170D01*
Y1127760D01*
X988060D01*
Y1136650D01*
D02*
G37*
G36*
X787568Y1176396D02*
X787400D01*
Y1165474D01*
Y1154552D01*
X787568D01*
X790346Y1155296D01*
X792836Y1156734D01*
X793890Y1157788D01*
X865948D01*
X891251Y1132485D01*
X891251Y1132485D01*
X892843Y1131264D01*
X894696Y1130496D01*
X896685Y1130234D01*
X896686Y1130234D01*
X967740D01*
Y1127760D01*
X976630D01*
Y1137920D01*
Y1148080D01*
X967740D01*
Y1145606D01*
X899869D01*
X874566Y1170909D01*
X872974Y1172130D01*
X871121Y1172898D01*
X869131Y1173160D01*
X793890D01*
X792836Y1174214D01*
X790346Y1175652D01*
X787568Y1176396D01*
D02*
G37*
G36*
X448750Y1129089D02*
X440250D01*
X438478Y1128855D01*
X436826Y1128171D01*
X435407Y1127083D01*
X434319Y1125664D01*
X434162Y1125286D01*
X429438D01*
X429281Y1125664D01*
X428193Y1127083D01*
X426774Y1128171D01*
X425122Y1128855D01*
X423350Y1129089D01*
X414850D01*
X413078Y1128855D01*
X411426Y1128171D01*
X410007Y1127083D01*
X408919Y1125664D01*
X408235Y1124013D01*
X408001Y1122240D01*
Y1116981D01*
X356661Y1065640D01*
X354081D01*
X351146Y1064854D01*
X348514Y1063334D01*
X346366Y1061186D01*
X344846Y1058554D01*
X344060Y1055619D01*
Y1052581D01*
X344846Y1049646D01*
X346366Y1047014D01*
X348514Y1044866D01*
X351146Y1043346D01*
X354081Y1042560D01*
X357119D01*
X360054Y1043346D01*
X362686Y1044866D01*
X364834Y1047014D01*
X366353Y1049646D01*
X367140Y1052581D01*
Y1054381D01*
X368190Y1055431D01*
X368337Y1055370D01*
X379730D01*
Y1066764D01*
X379669Y1066910D01*
X418871Y1106111D01*
X423350D01*
X425122Y1106345D01*
X426774Y1107029D01*
X428193Y1108117D01*
X429281Y1109536D01*
X429438Y1109914D01*
X434162D01*
X434319Y1109536D01*
X435407Y1108117D01*
X436826Y1107029D01*
X438478Y1106345D01*
X440250Y1106111D01*
X448750D01*
X450522Y1106345D01*
X452174Y1107029D01*
X453593Y1108117D01*
X454681Y1109536D01*
X455365Y1111187D01*
X455599Y1112960D01*
Y1122240D01*
X455365Y1124013D01*
X454681Y1125664D01*
X453593Y1127083D01*
X452174Y1128171D01*
X450522Y1128855D01*
X448750Y1129089D01*
D02*
G37*
G36*
X382519Y1065640D02*
X382270D01*
Y1055370D01*
X392540D01*
Y1055619D01*
X391754Y1058554D01*
X390234Y1061186D01*
X388086Y1063334D01*
X385454Y1064854D01*
X382519Y1065640D01*
D02*
G37*
G36*
X988060Y1071880D02*
X967740D01*
Y1051560D01*
X988060D01*
Y1071880D01*
D02*
G37*
G36*
X712719Y1065640D02*
X709681D01*
X706746Y1064854D01*
X704114Y1063334D01*
X701966Y1061186D01*
X700446Y1058554D01*
X699660Y1055619D01*
Y1052581D01*
X700446Y1049646D01*
X701966Y1047014D01*
X704114Y1044866D01*
X706746Y1043346D01*
X709681Y1042560D01*
X712719D01*
X715654Y1043346D01*
X718286Y1044866D01*
X720434Y1047014D01*
X721954Y1049646D01*
X722740Y1052581D01*
Y1055619D01*
X721954Y1058554D01*
X720434Y1061186D01*
X718286Y1063334D01*
X715654Y1064854D01*
X712719Y1065640D01*
D02*
G37*
G36*
X687319D02*
X684281D01*
X681346Y1064854D01*
X678714Y1063334D01*
X676566Y1061186D01*
X675046Y1058554D01*
X674260Y1055619D01*
Y1052581D01*
X675046Y1049646D01*
X676566Y1047014D01*
X678714Y1044866D01*
X681346Y1043346D01*
X684281Y1042560D01*
X687319D01*
X690254Y1043346D01*
X692886Y1044866D01*
X695034Y1047014D01*
X696553Y1049646D01*
X697340Y1052581D01*
Y1055619D01*
X696553Y1058554D01*
X695034Y1061186D01*
X692886Y1063334D01*
X690254Y1064854D01*
X687319Y1065640D01*
D02*
G37*
G36*
X611119D02*
X608081D01*
X605146Y1064854D01*
X602514Y1063334D01*
X600366Y1061186D01*
X598847Y1058554D01*
X598060Y1055619D01*
Y1052581D01*
X598847Y1049646D01*
X600366Y1047014D01*
X602514Y1044866D01*
X605146Y1043346D01*
X608081Y1042560D01*
X611119D01*
X614054Y1043346D01*
X616686Y1044866D01*
X618834Y1047014D01*
X620354Y1049646D01*
X621140Y1052581D01*
Y1055619D01*
X620354Y1058554D01*
X618834Y1061186D01*
X616686Y1063334D01*
X614054Y1064854D01*
X611119Y1065640D01*
D02*
G37*
G36*
X585719D02*
X582681D01*
X579746Y1064854D01*
X577114Y1063334D01*
X574966Y1061186D01*
X573447Y1058554D01*
X572660Y1055619D01*
Y1052581D01*
X573447Y1049646D01*
X574966Y1047014D01*
X577114Y1044866D01*
X579746Y1043346D01*
X582681Y1042560D01*
X585719D01*
X588654Y1043346D01*
X591286Y1044866D01*
X593434Y1047014D01*
X594953Y1049646D01*
X595740Y1052581D01*
Y1055619D01*
X594953Y1058554D01*
X593434Y1061186D01*
X591286Y1063334D01*
X588654Y1064854D01*
X585719Y1065640D01*
D02*
G37*
G36*
X560319D02*
X557281D01*
X554346Y1064854D01*
X551714Y1063334D01*
X549566Y1061186D01*
X548046Y1058554D01*
X547260Y1055619D01*
Y1052581D01*
X548046Y1049646D01*
X549566Y1047014D01*
X551714Y1044866D01*
X554346Y1043346D01*
X557281Y1042560D01*
X560319D01*
X563254Y1043346D01*
X565886Y1044866D01*
X568034Y1047014D01*
X569553Y1049646D01*
X570340Y1052581D01*
Y1055619D01*
X569553Y1058554D01*
X568034Y1061186D01*
X565886Y1063334D01*
X563254Y1064854D01*
X560319Y1065640D01*
D02*
G37*
G36*
X484119D02*
X481081D01*
X478146Y1064854D01*
X475514Y1063334D01*
X473366Y1061186D01*
X471847Y1058554D01*
X471060Y1055619D01*
Y1052581D01*
X471847Y1049646D01*
X473366Y1047014D01*
X475514Y1044866D01*
X478146Y1043346D01*
X481081Y1042560D01*
X484119D01*
X487054Y1043346D01*
X489686Y1044866D01*
X491834Y1047014D01*
X493354Y1049646D01*
X494140Y1052581D01*
Y1055619D01*
X493354Y1058554D01*
X491834Y1061186D01*
X489686Y1063334D01*
X487054Y1064854D01*
X484119Y1065640D01*
D02*
G37*
G36*
X407919D02*
X404881D01*
X401946Y1064854D01*
X399314Y1063334D01*
X397166Y1061186D01*
X395647Y1058554D01*
X394860Y1055619D01*
Y1052581D01*
X395647Y1049646D01*
X397166Y1047014D01*
X399314Y1044866D01*
X401946Y1043346D01*
X404881Y1042560D01*
X407919D01*
X410854Y1043346D01*
X413486Y1044866D01*
X415634Y1047014D01*
X417154Y1049646D01*
X417940Y1052581D01*
Y1055619D01*
X417154Y1058554D01*
X415634Y1061186D01*
X413486Y1063334D01*
X410854Y1064854D01*
X407919Y1065640D01*
D02*
G37*
G36*
X392540Y1052830D02*
X382270D01*
Y1042560D01*
X382519D01*
X385454Y1043346D01*
X388086Y1044866D01*
X390234Y1047014D01*
X391754Y1049646D01*
X392540Y1052581D01*
Y1052830D01*
D02*
G37*
G36*
X379730D02*
X369460D01*
Y1052581D01*
X370247Y1049646D01*
X371766Y1047014D01*
X373914Y1044866D01*
X376546Y1043346D01*
X379481Y1042560D01*
X379730D01*
Y1052830D01*
D02*
G37*
G36*
X797560Y985644D02*
X787400D01*
X784922Y985152D01*
X782822Y983748D01*
X782353Y983046D01*
X607060D01*
X605071Y982784D01*
X603217Y982016D01*
X601625Y980795D01*
X601625Y980795D01*
X534071Y913240D01*
X531881D01*
X528946Y912454D01*
X526314Y910934D01*
X524166Y908786D01*
X522646Y906154D01*
X521860Y903219D01*
Y900181D01*
X522646Y897246D01*
X524166Y894614D01*
X526314Y892466D01*
X528946Y890947D01*
X531881Y890160D01*
X534919D01*
X537854Y890947D01*
X540486Y892466D01*
X542634Y894614D01*
X544154Y897246D01*
X544940Y900181D01*
Y902371D01*
X546132Y903563D01*
X547260Y902895D01*
Y900181D01*
X548046Y897246D01*
X549566Y894614D01*
X551114Y893066D01*
Y780424D01*
X514976Y744286D01*
X332804D01*
X330266Y746824D01*
Y754665D01*
X330469Y754801D01*
X331808Y756805D01*
X332279Y759170D01*
Y769910D01*
X331808Y772274D01*
X330469Y774279D01*
X328465Y775618D01*
X326100Y776089D01*
X319060D01*
X316695Y775618D01*
X314691Y774279D01*
X313352Y772274D01*
X312881Y769910D01*
Y759170D01*
X313352Y756805D01*
X314691Y754801D01*
X314894Y754665D01*
Y743640D01*
X315156Y741651D01*
X315924Y739797D01*
X317145Y738205D01*
X324185Y731165D01*
X325777Y729944D01*
X327631Y729176D01*
X329620Y728914D01*
X518160D01*
X520149Y729176D01*
X522003Y729944D01*
X523595Y731165D01*
X564235Y771805D01*
X565456Y773397D01*
X566224Y775251D01*
X566486Y777240D01*
X566486Y777240D01*
Y893066D01*
X568034Y894614D01*
X569553Y897246D01*
X570340Y900181D01*
Y903219D01*
X569553Y906154D01*
X568034Y908786D01*
X565886Y910934D01*
X563254Y912454D01*
X560319Y913240D01*
X557605D01*
X556937Y914368D01*
X610243Y967674D01*
X782353D01*
X782822Y966972D01*
X784922Y965568D01*
X787400Y965076D01*
X797560D01*
X800038Y965568D01*
X802138Y966972D01*
X803542Y969072D01*
X804034Y971550D01*
Y979170D01*
X803542Y981648D01*
X802138Y983748D01*
X800038Y985152D01*
X797560Y985644D01*
D02*
G37*
G36*
X433319Y913240D02*
X433070D01*
Y902970D01*
X443340D01*
Y903219D01*
X442553Y906154D01*
X441034Y908786D01*
X438886Y910934D01*
X436254Y912454D01*
X433319Y913240D01*
D02*
G37*
G36*
X430530D02*
X430281D01*
X427346Y912454D01*
X424714Y910934D01*
X422566Y908786D01*
X421046Y906154D01*
X420260Y903219D01*
Y902970D01*
X430530D01*
Y913240D01*
D02*
G37*
G36*
X382519D02*
X379481D01*
X376546Y912454D01*
X373914Y910934D01*
X371766Y908786D01*
X370247Y906154D01*
X369460Y903219D01*
Y900181D01*
X369729Y899177D01*
X368410Y897858D01*
X367140Y898384D01*
Y913240D01*
X344060D01*
Y901029D01*
X342545Y899515D01*
X341324Y897923D01*
X340556Y896069D01*
X340294Y894080D01*
Y852088D01*
X339458Y850838D01*
X338966Y848360D01*
Y838200D01*
X339458Y835722D01*
X340294Y834472D01*
Y774415D01*
X340091Y774279D01*
X338752Y772274D01*
X338281Y769910D01*
Y759170D01*
X338752Y756805D01*
X340091Y754801D01*
X342095Y753462D01*
X344460Y752991D01*
X351500D01*
X353865Y753462D01*
X355869Y754801D01*
X357208Y756805D01*
X357679Y759170D01*
Y769910D01*
X357208Y772274D01*
X355869Y774279D01*
X355666Y774415D01*
Y832304D01*
X357638Y833622D01*
X359042Y835722D01*
X359534Y838200D01*
Y848360D01*
X359042Y850838D01*
X357638Y852938D01*
X355666Y854256D01*
Y890160D01*
X365694D01*
Y852088D01*
X364858Y850838D01*
X364366Y848360D01*
Y838200D01*
X364858Y835722D01*
X365694Y834472D01*
Y774415D01*
X365491Y774279D01*
X364152Y772274D01*
X363681Y769910D01*
Y759170D01*
X364152Y756805D01*
X365491Y754801D01*
X367495Y753462D01*
X369860Y752991D01*
X376900D01*
X379264Y753462D01*
X381269Y754801D01*
X382608Y756805D01*
X383079Y759170D01*
Y769910D01*
X382608Y772274D01*
X381269Y774279D01*
X381066Y774415D01*
Y832304D01*
X383038Y833622D01*
X384442Y835722D01*
X384934Y838200D01*
Y848360D01*
X384442Y850838D01*
X383038Y852938D01*
X381066Y854256D01*
Y888775D01*
X382451Y890160D01*
X382519D01*
X385454Y890947D01*
X388086Y892466D01*
X390234Y894614D01*
X391754Y897246D01*
X392540Y900181D01*
Y903219D01*
X391754Y906154D01*
X390234Y908786D01*
X388086Y910934D01*
X385454Y912454D01*
X382519Y913240D01*
D02*
G37*
G36*
X712719D02*
X709681D01*
X706746Y912454D01*
X704114Y910934D01*
X701966Y908786D01*
X700446Y906154D01*
X699660Y903219D01*
Y900181D01*
X700446Y897246D01*
X701966Y894614D01*
X704114Y892466D01*
X706746Y890947D01*
X709681Y890160D01*
X712719D01*
X715654Y890947D01*
X718286Y892466D01*
X720434Y894614D01*
X721954Y897246D01*
X722740Y900181D01*
Y903219D01*
X721954Y906154D01*
X720434Y908786D01*
X718286Y910934D01*
X715654Y912454D01*
X712719Y913240D01*
D02*
G37*
G36*
X636519D02*
X633481D01*
X630546Y912454D01*
X627914Y910934D01*
X625766Y908786D01*
X624246Y906154D01*
X623460Y903219D01*
Y900181D01*
X624246Y897246D01*
X625766Y894614D01*
X627914Y892466D01*
X630546Y890947D01*
X633481Y890160D01*
X636519D01*
X639454Y890947D01*
X642086Y892466D01*
X644234Y894614D01*
X645753Y897246D01*
X646540Y900181D01*
Y903219D01*
X645753Y906154D01*
X644234Y908786D01*
X642086Y910934D01*
X639454Y912454D01*
X636519Y913240D01*
D02*
G37*
G36*
X611119D02*
X608081D01*
X605146Y912454D01*
X602514Y910934D01*
X600366Y908786D01*
X598847Y906154D01*
X598060Y903219D01*
Y900181D01*
X598847Y897246D01*
X600366Y894614D01*
X602514Y892466D01*
X605146Y890947D01*
X608081Y890160D01*
X611119D01*
X614054Y890947D01*
X616686Y892466D01*
X618834Y894614D01*
X620354Y897246D01*
X621140Y900181D01*
Y903219D01*
X620354Y906154D01*
X618834Y908786D01*
X616686Y910934D01*
X614054Y912454D01*
X611119Y913240D01*
D02*
G37*
G36*
X509519D02*
X506481D01*
X503546Y912454D01*
X500914Y910934D01*
X498766Y908786D01*
X497247Y906154D01*
X496460Y903219D01*
Y900181D01*
X497247Y897246D01*
X498766Y894614D01*
X500914Y892466D01*
X503546Y890947D01*
X506481Y890160D01*
X509519D01*
X512454Y890947D01*
X515086Y892466D01*
X517234Y894614D01*
X518754Y897246D01*
X519540Y900181D01*
Y903219D01*
X518754Y906154D01*
X517234Y908786D01*
X515086Y910934D01*
X512454Y912454D01*
X509519Y913240D01*
D02*
G37*
G36*
X484119D02*
X481081D01*
X478146Y912454D01*
X475514Y910934D01*
X473366Y908786D01*
X471847Y906154D01*
X471060Y903219D01*
Y900181D01*
X471847Y897246D01*
X473366Y894614D01*
X475514Y892466D01*
X478146Y890947D01*
X481081Y890160D01*
X484119D01*
X487054Y890947D01*
X489686Y892466D01*
X491834Y894614D01*
X493354Y897246D01*
X494140Y900181D01*
Y903219D01*
X493354Y906154D01*
X491834Y908786D01*
X489686Y910934D01*
X487054Y912454D01*
X484119Y913240D01*
D02*
G37*
G36*
X458719D02*
X455681D01*
X452746Y912454D01*
X450114Y910934D01*
X447966Y908786D01*
X446446Y906154D01*
X445660Y903219D01*
Y900181D01*
X446446Y897246D01*
X447966Y894614D01*
X450114Y892466D01*
X452746Y890947D01*
X455681Y890160D01*
X458719D01*
X461654Y890947D01*
X464286Y892466D01*
X466434Y894614D01*
X467953Y897246D01*
X468740Y900181D01*
Y903219D01*
X467953Y906154D01*
X466434Y908786D01*
X464286Y910934D01*
X461654Y912454D01*
X458719Y913240D01*
D02*
G37*
G36*
X443340Y900430D02*
X433070D01*
Y890160D01*
X433319D01*
X436254Y890947D01*
X438886Y892466D01*
X441034Y894614D01*
X442553Y897246D01*
X443340Y900181D01*
Y900430D01*
D02*
G37*
G36*
X430530D02*
X420260D01*
Y900181D01*
X421046Y897246D01*
X422566Y894614D01*
X424714Y892466D01*
X427346Y890947D01*
X430281Y890160D01*
X430530D01*
Y900430D01*
D02*
G37*
G36*
X407919Y913240D02*
X404881D01*
X401946Y912454D01*
X399314Y910934D01*
X397166Y908786D01*
X395647Y906154D01*
X394860Y903219D01*
Y900181D01*
X395647Y897246D01*
X397166Y894614D01*
X399314Y892466D01*
X401946Y890947D01*
X404881Y890160D01*
X407919D01*
X410854Y890947D01*
X413486Y892466D01*
X415634Y894614D01*
X417154Y897246D01*
X417940Y900181D01*
Y903219D01*
X417154Y906154D01*
X415634Y908786D01*
X413486Y910934D01*
X410854Y912454D01*
X407919Y913240D01*
D02*
G37*
G36*
X990600Y876300D02*
X981710D01*
Y867410D01*
X990600D01*
Y876300D01*
D02*
G37*
G36*
X979170D02*
X970280D01*
Y867410D01*
X979170D01*
Y876300D01*
D02*
G37*
G36*
X990600Y864870D02*
X981710D01*
Y855980D01*
X990600D01*
Y864870D01*
D02*
G37*
G36*
X979170D02*
X970280D01*
Y855980D01*
X979170D01*
Y864870D01*
D02*
G37*
G36*
X403860Y854834D02*
X401320D01*
Y844550D01*
X410334D01*
Y848360D01*
X409842Y850838D01*
X408438Y852938D01*
X406338Y854342D01*
X403860Y854834D01*
D02*
G37*
G36*
X398780D02*
X396240D01*
X393762Y854342D01*
X391662Y852938D01*
X390258Y850838D01*
X389766Y848360D01*
Y844550D01*
X398780D01*
Y854834D01*
D02*
G37*
G36*
X454660D02*
X447040D01*
X444562Y854342D01*
X442462Y852938D01*
X441058Y850838D01*
X440566Y848360D01*
Y838200D01*
X441058Y835722D01*
X442462Y833622D01*
X444562Y832218D01*
X447040Y831726D01*
X454660D01*
X457138Y832218D01*
X459238Y833622D01*
X460642Y835722D01*
X461134Y838200D01*
Y848360D01*
X460642Y850838D01*
X459238Y852938D01*
X457138Y854342D01*
X454660Y854834D01*
D02*
G37*
G36*
X410334Y842010D02*
X401320D01*
Y831726D01*
X403860D01*
X406338Y832218D01*
X408438Y833622D01*
X409842Y835722D01*
X410334Y838200D01*
Y842010D01*
D02*
G37*
G36*
X398780D02*
X389766D01*
Y838200D01*
X390258Y835722D01*
X391662Y833622D01*
X393762Y832218D01*
X396240Y831726D01*
X398780D01*
Y842010D01*
D02*
G37*
G36*
X327660Y854834D02*
X320040D01*
X317562Y854342D01*
X315462Y852938D01*
X314058Y850838D01*
X313566Y848360D01*
Y838200D01*
X314058Y835722D01*
X315462Y833622D01*
X317562Y832218D01*
X320040Y831726D01*
X327660D01*
X330138Y832218D01*
X332238Y833622D01*
X333642Y835722D01*
X334134Y838200D01*
Y848360D01*
X333642Y850838D01*
X332238Y852938D01*
X330138Y854342D01*
X327660Y854834D01*
D02*
G37*
G36*
X990600Y850900D02*
X970280D01*
Y830580D01*
X990600D01*
Y850900D01*
D02*
G37*
G36*
Y825500D02*
X970280D01*
Y805180D01*
X990600D01*
Y825500D01*
D02*
G37*
G36*
X429260Y854834D02*
X421640D01*
X419162Y854342D01*
X417062Y852938D01*
X415658Y850838D01*
X415166Y848360D01*
Y838200D01*
X415658Y835722D01*
X416494Y834472D01*
Y812800D01*
Y774415D01*
X416291Y774279D01*
X414952Y772274D01*
X414481Y769910D01*
Y759170D01*
X414952Y756805D01*
X416291Y754801D01*
X418296Y753462D01*
X420660Y752991D01*
X427700D01*
X430065Y753462D01*
X432069Y754801D01*
X433408Y756805D01*
X433879Y759170D01*
Y769910D01*
X433408Y772274D01*
X432069Y774279D01*
X431866Y774415D01*
Y802574D01*
X503532D01*
X504569Y801976D01*
X506830Y801370D01*
X509170D01*
X511431Y801976D01*
X513459Y803146D01*
X515114Y804801D01*
X516284Y806829D01*
X516890Y809090D01*
Y811430D01*
X516284Y813691D01*
X515114Y815719D01*
X513459Y817374D01*
X511431Y818544D01*
X509170Y819150D01*
X506830D01*
X504569Y818544D01*
X503532Y817946D01*
X431866D01*
Y832304D01*
X433838Y833622D01*
X435242Y835722D01*
X435734Y838200D01*
Y848360D01*
X435242Y850838D01*
X433838Y852938D01*
X431738Y854342D01*
X429260Y854834D01*
D02*
G37*
G36*
X797560Y858644D02*
X787400D01*
X784922Y858152D01*
X782822Y856748D01*
X781418Y854648D01*
X780926Y852170D01*
Y844550D01*
X781418Y842072D01*
X782822Y839972D01*
X784794Y838654D01*
Y811749D01*
X784414Y811369D01*
X783087Y809071D01*
X782400Y806507D01*
Y803853D01*
X783087Y801289D01*
X784414Y798991D01*
X786291Y797114D01*
X788589Y795787D01*
X791153Y795100D01*
X793807D01*
X796371Y795787D01*
X798669Y797114D01*
X800546Y798991D01*
X801873Y801289D01*
X802560Y803853D01*
Y806507D01*
X801873Y809071D01*
X800546Y811369D01*
X800166Y811749D01*
Y838654D01*
X802138Y839972D01*
X803542Y842072D01*
X804034Y844550D01*
Y852170D01*
X803542Y854648D01*
X802138Y856748D01*
X800038Y858152D01*
X797560Y858644D01*
D02*
G37*
G36*
X802560Y789860D02*
X793750D01*
Y781050D01*
X802560D01*
Y789860D01*
D02*
G37*
G36*
X453100Y776089D02*
X450850D01*
Y765810D01*
X459279D01*
Y769910D01*
X458808Y772274D01*
X457469Y774279D01*
X455465Y775618D01*
X453100Y776089D01*
D02*
G37*
G36*
X448310D02*
X446060D01*
X443695Y775618D01*
X441691Y774279D01*
X440352Y772274D01*
X439881Y769910D01*
Y765810D01*
X448310D01*
Y776089D01*
D02*
G37*
G36*
X459279Y763270D02*
X450850D01*
Y752991D01*
X453100D01*
X455465Y753462D01*
X457469Y754801D01*
X458808Y756805D01*
X459279Y759170D01*
Y763270D01*
D02*
G37*
G36*
X448310D02*
X439881D01*
Y759170D01*
X440352Y756805D01*
X441691Y754801D01*
X443695Y753462D01*
X446060Y752991D01*
X448310D01*
Y763270D01*
D02*
G37*
G36*
X402300Y776089D02*
X395260D01*
X392896Y775618D01*
X390891Y774279D01*
X389552Y772274D01*
X389081Y769910D01*
Y759170D01*
X389552Y756805D01*
X390891Y754801D01*
X392896Y753462D01*
X395260Y752991D01*
X402300D01*
X404664Y753462D01*
X406669Y754801D01*
X408008Y756805D01*
X408479Y759170D01*
Y769910D01*
X408008Y772274D01*
X406669Y774279D01*
X404664Y775618D01*
X402300Y776089D01*
D02*
G37*
G36*
X1032510Y1195136D02*
X674370D01*
X672381Y1194874D01*
X670527Y1194106D01*
X668935Y1192885D01*
X615365Y1139314D01*
X610870D01*
X608392Y1138822D01*
X606292Y1137418D01*
X604888Y1135318D01*
X604396Y1132840D01*
Y1125805D01*
X583556Y1104966D01*
X475300D01*
X475178Y1104966D01*
X475095Y1106236D01*
X475193Y1106249D01*
X475923Y1106345D01*
X477574Y1107029D01*
X478993Y1108117D01*
X480081Y1109536D01*
X480765Y1111187D01*
X480999Y1112960D01*
Y1122240D01*
X480765Y1124013D01*
X480081Y1125664D01*
X478993Y1127083D01*
X477574Y1128171D01*
X475923Y1128855D01*
X474599Y1129029D01*
Y1130747D01*
X474337Y1132736D01*
X473570Y1134589D01*
X472348Y1136181D01*
X462635Y1145895D01*
X461043Y1147116D01*
X459189Y1147884D01*
X457200Y1148146D01*
X353060D01*
X351071Y1147884D01*
X349217Y1147116D01*
X347625Y1145895D01*
X335036Y1133305D01*
X325200D01*
X323232Y1133046D01*
X321398Y1132286D01*
X319822Y1131078D01*
X318614Y1129502D01*
X317854Y1127668D01*
X317595Y1125700D01*
Y1115700D01*
X317854Y1113732D01*
X318614Y1111897D01*
X319822Y1110322D01*
X321398Y1109114D01*
X323232Y1108354D01*
X325200Y1108095D01*
X335200D01*
X337168Y1108354D01*
X339002Y1109114D01*
X340578Y1110322D01*
X341786Y1111897D01*
X342546Y1113732D01*
X342805Y1115700D01*
Y1119533D01*
X343655Y1120185D01*
X356244Y1132774D01*
X454016D01*
X459228Y1127563D01*
Y1124478D01*
X459035Y1124013D01*
X458801Y1122240D01*
Y1112960D01*
X459035Y1111187D01*
X459719Y1109536D01*
X460807Y1108117D01*
X462226Y1107029D01*
X463877Y1106345D01*
X465650Y1106111D01*
X473830D01*
X473952Y1106111D01*
X474035Y1104842D01*
X473937Y1104828D01*
X472991Y1104704D01*
X471137Y1103936D01*
X469545Y1102715D01*
X432471Y1065640D01*
X430281D01*
X427346Y1064854D01*
X424714Y1063334D01*
X422566Y1061186D01*
X421046Y1058554D01*
X420260Y1055619D01*
Y1052581D01*
X421046Y1049646D01*
X422566Y1047014D01*
X424114Y1045466D01*
Y969668D01*
X423516Y968631D01*
X422910Y966370D01*
Y964030D01*
X423516Y961769D01*
X424686Y959741D01*
X426341Y958086D01*
X428369Y956916D01*
X430630Y956310D01*
X432970D01*
X435231Y956916D01*
X437259Y958086D01*
X438914Y959741D01*
X440084Y961769D01*
X440690Y964030D01*
Y966370D01*
X440084Y968631D01*
X439486Y969668D01*
Y1045466D01*
X441034Y1047014D01*
X442553Y1049646D01*
X443340Y1052581D01*
Y1054771D01*
X444532Y1055963D01*
X445660Y1055295D01*
Y1052581D01*
X446446Y1049646D01*
X447966Y1047014D01*
X450114Y1044866D01*
X452746Y1043346D01*
X455681Y1042560D01*
X458719D01*
X461654Y1043346D01*
X464286Y1044866D01*
X466434Y1047014D01*
X467953Y1049646D01*
X468740Y1052581D01*
Y1055619D01*
X467953Y1058554D01*
X466434Y1061186D01*
X464286Y1063334D01*
X461654Y1064854D01*
X458719Y1065640D01*
X456005D01*
X455337Y1066768D01*
X478164Y1089594D01*
X533077D01*
X533508Y1088324D01*
X532401Y1087475D01*
X510345Y1065419D01*
X509519Y1065640D01*
X506481D01*
X503546Y1064854D01*
X500914Y1063334D01*
X498766Y1061186D01*
X497247Y1058554D01*
X496460Y1055619D01*
Y1052581D01*
X497247Y1049646D01*
X498766Y1047014D01*
X500314Y1045466D01*
Y1026160D01*
X500576Y1024171D01*
X501344Y1022317D01*
X502565Y1020725D01*
X522885Y1000405D01*
X524477Y999184D01*
X526331Y998416D01*
X528320Y998154D01*
X853503D01*
X906714Y944943D01*
Y810260D01*
X906976Y808271D01*
X907744Y806417D01*
X908965Y804825D01*
X923851Y789940D01*
X908965Y775055D01*
X907744Y773463D01*
X906976Y771609D01*
X906714Y769620D01*
Y533400D01*
X906976Y531411D01*
X907744Y529557D01*
X908965Y527965D01*
X933095Y503835D01*
X934687Y502614D01*
X936541Y501846D01*
X938530Y501584D01*
X978185D01*
X978321Y501381D01*
X980325Y500042D01*
X982690Y499571D01*
X993430D01*
X995795Y500042D01*
X997799Y501381D01*
X999138Y503386D01*
X999609Y505750D01*
Y512790D01*
X999138Y515154D01*
X997799Y517159D01*
X995795Y518498D01*
X993430Y518969D01*
X982690D01*
X980325Y518498D01*
X978321Y517159D01*
X978185Y516956D01*
X941714D01*
X922086Y536584D01*
Y766436D01*
X937904Y782254D01*
X970280D01*
Y779780D01*
X990600D01*
Y800100D01*
X970280D01*
Y797626D01*
X937904D01*
X922086Y813444D01*
Y948127D01*
X921824Y950116D01*
X921056Y951970D01*
X919835Y953561D01*
X862122Y1011275D01*
X860530Y1012496D01*
X858676Y1013264D01*
X856687Y1013526D01*
X531504D01*
X515686Y1029344D01*
Y1045466D01*
X517234Y1047014D01*
X518754Y1049646D01*
X519540Y1052581D01*
Y1052875D01*
X520687Y1054022D01*
X521860Y1053536D01*
Y1052581D01*
X522646Y1049646D01*
X524166Y1047014D01*
X525714Y1045466D01*
Y1038860D01*
X525976Y1036871D01*
X526744Y1035017D01*
X527965Y1033425D01*
X540665Y1020725D01*
X542257Y1019504D01*
X544111Y1018736D01*
X546100Y1018474D01*
X546100Y1018474D01*
X795020D01*
X797009Y1018736D01*
X798863Y1019504D01*
X800455Y1020725D01*
X856624Y1076894D01*
X977900D01*
X978400Y1076960D01*
X979940D01*
X980440Y1076894D01*
X1002003D01*
X1028634Y1050263D01*
Y798204D01*
X1005196Y774766D01*
X965200D01*
X963211Y774504D01*
X961357Y773736D01*
X959765Y772515D01*
X927561Y740310D01*
X926339Y738718D01*
X925571Y736864D01*
X925310Y734875D01*
Y565605D01*
X925571Y563615D01*
X926339Y561762D01*
X927561Y560170D01*
X958495Y529235D01*
X958495Y529235D01*
X960087Y528014D01*
X961941Y527246D01*
X963930Y526984D01*
X978185D01*
X978321Y526781D01*
X980325Y525442D01*
X982690Y524971D01*
X993430D01*
X995795Y525442D01*
X997799Y526781D01*
X999138Y528786D01*
X999609Y531150D01*
Y538190D01*
X999138Y540555D01*
X997799Y542559D01*
X995795Y543898D01*
X993430Y544369D01*
X982690D01*
X980325Y543898D01*
X978321Y542559D01*
X978185Y542356D01*
X967113D01*
X940681Y568788D01*
Y731692D01*
X968384Y759394D01*
X970280D01*
Y754380D01*
X990600D01*
Y759394D01*
X1008380D01*
X1010369Y759656D01*
X1012223Y760424D01*
X1013815Y761645D01*
X1041755Y789585D01*
X1042976Y791177D01*
X1043744Y793031D01*
X1044006Y795020D01*
Y1053446D01*
X1043744Y1055435D01*
X1042976Y1057289D01*
X1041755Y1058881D01*
X1041755Y1058881D01*
X1010621Y1090015D01*
X1009029Y1091236D01*
X1007176Y1092004D01*
X1005186Y1092266D01*
X988060D01*
Y1097280D01*
X967740D01*
Y1092266D01*
X853440D01*
X851451Y1092004D01*
X849597Y1091236D01*
X848005Y1090015D01*
X791836Y1033846D01*
X549284D01*
X541086Y1042044D01*
Y1045466D01*
X542634Y1047014D01*
X544154Y1049646D01*
X544940Y1052581D01*
Y1055619D01*
X544154Y1058554D01*
X542634Y1061186D01*
X540486Y1063334D01*
X537854Y1064854D01*
X534919Y1065640D01*
X533964D01*
X533478Y1066813D01*
X541019Y1074354D01*
X627380D01*
X629369Y1074616D01*
X631223Y1075384D01*
X632815Y1076605D01*
X692794Y1136584D01*
X731388D01*
X731986Y1135464D01*
X731888Y1135318D01*
X731409Y1132906D01*
X708016D01*
X706027Y1132644D01*
X704173Y1131876D01*
X702581Y1130655D01*
X637345Y1065419D01*
X636519Y1065640D01*
X633481D01*
X630546Y1064854D01*
X627914Y1063334D01*
X625766Y1061186D01*
X624246Y1058554D01*
X623460Y1055619D01*
Y1052581D01*
X624246Y1049646D01*
X625766Y1047014D01*
X627914Y1044866D01*
X630546Y1043346D01*
X633481Y1042560D01*
X636519D01*
X639454Y1043346D01*
X642086Y1044866D01*
X644234Y1047014D01*
X645753Y1049646D01*
X646540Y1052581D01*
Y1052875D01*
X647687Y1054022D01*
X648860Y1053536D01*
Y1052581D01*
X649647Y1049646D01*
X651166Y1047014D01*
X653314Y1044866D01*
X655946Y1043346D01*
X658881Y1042560D01*
X661919D01*
X664854Y1043346D01*
X667486Y1044866D01*
X669634Y1047014D01*
X671153Y1049646D01*
X671940Y1052581D01*
Y1055619D01*
X671153Y1058554D01*
X669634Y1061186D01*
X667486Y1063334D01*
X664854Y1064854D01*
X661919Y1065640D01*
X660964D01*
X660478Y1066813D01*
X711199Y1117534D01*
X734141D01*
X735392Y1116698D01*
X737870Y1116206D01*
X745490D01*
X747968Y1116698D01*
X749219Y1117534D01*
X778624D01*
X779424Y1116734D01*
X781914Y1115296D01*
X784692Y1114552D01*
X787568D01*
X790346Y1115296D01*
X792836Y1116734D01*
X794870Y1118768D01*
X796308Y1121258D01*
X797052Y1124036D01*
Y1126912D01*
X796308Y1129690D01*
X794870Y1132180D01*
X792836Y1134214D01*
X790930Y1135314D01*
X791271Y1136584D01*
X828666D01*
X858165Y1107085D01*
X859757Y1105864D01*
X861611Y1105096D01*
X863600Y1104834D01*
X967740D01*
Y1102360D01*
X988060D01*
Y1122680D01*
X967740D01*
Y1120206D01*
X866784D01*
X837285Y1149705D01*
X835693Y1150926D01*
X833839Y1151694D01*
X831850Y1151956D01*
X689610D01*
X687621Y1151694D01*
X685767Y1150926D01*
X684175Y1149705D01*
X624196Y1089726D01*
X591499D01*
X591068Y1090996D01*
X592175Y1091845D01*
X616535Y1116206D01*
X618490D01*
X620968Y1116698D01*
X623068Y1118102D01*
X624472Y1120202D01*
X624964Y1122680D01*
Y1127175D01*
X677554Y1179764D01*
X970214D01*
Y1173480D01*
X967740D01*
Y1153160D01*
X988060D01*
Y1173480D01*
X985586D01*
Y1179764D01*
X1029326D01*
X1054034Y1155057D01*
Y760104D01*
X1040756Y746826D01*
X990600D01*
Y749300D01*
X970280D01*
Y728980D01*
X990600D01*
Y731454D01*
X1008314D01*
Y470544D01*
X1003926Y466156D01*
X997935D01*
X997799Y466359D01*
X995795Y467698D01*
X993430Y468169D01*
X982690D01*
X980325Y467698D01*
X978321Y466359D01*
X976982Y464355D01*
X976511Y461990D01*
Y454950D01*
X976982Y452585D01*
X978321Y450581D01*
X980325Y449242D01*
X982690Y448771D01*
X993430D01*
X995795Y449242D01*
X997799Y450581D01*
X997935Y450784D01*
X1007110D01*
X1009099Y451046D01*
X1010953Y451814D01*
X1012545Y453035D01*
X1021435Y461925D01*
X1022656Y463517D01*
X1023424Y465371D01*
X1023686Y467360D01*
X1023686Y467360D01*
Y731454D01*
X1040756D01*
X1054034Y718176D01*
Y401964D01*
X1028056Y375986D01*
X815984D01*
X614746Y577224D01*
Y647700D01*
X614484Y649689D01*
X613716Y651543D01*
X612495Y653135D01*
X581450Y684180D01*
X579858Y685401D01*
X578004Y686169D01*
X576015Y686431D01*
Y692855D01*
X554285D01*
Y671125D01*
X567896D01*
X568395Y671059D01*
X572831D01*
X599374Y644516D01*
Y574040D01*
X599636Y572051D01*
X600404Y570197D01*
X601625Y568605D01*
X807365Y362865D01*
X808957Y361644D01*
X810811Y360876D01*
X812800Y360614D01*
X1031240D01*
X1033229Y360876D01*
X1035083Y361644D01*
X1036675Y362865D01*
X1067155Y393345D01*
X1068376Y394937D01*
X1069144Y396791D01*
X1069406Y398780D01*
Y721360D01*
X1069144Y723349D01*
X1068376Y725203D01*
X1067155Y726795D01*
X1067155Y726795D01*
X1054809Y739140D01*
X1067155Y751485D01*
X1067155Y751485D01*
X1068376Y753077D01*
X1069144Y754931D01*
X1069406Y756920D01*
Y1158240D01*
X1069406Y1158240D01*
X1069144Y1160229D01*
X1068376Y1162083D01*
X1067155Y1163675D01*
X1067155Y1163675D01*
X1037945Y1192885D01*
X1036353Y1194106D01*
X1034499Y1194874D01*
X1032510Y1195136D01*
D02*
G37*
G36*
X585719Y913240D02*
X582681D01*
X579746Y912454D01*
X577114Y910934D01*
X574966Y908786D01*
X573447Y906154D01*
X572660Y903219D01*
Y900181D01*
X573447Y897246D01*
X574966Y894614D01*
X576514Y893066D01*
Y755024D01*
X530216Y708726D01*
X333384D01*
X306701Y735408D01*
Y758277D01*
X306879Y759170D01*
Y769910D01*
X306408Y772274D01*
X305069Y774279D01*
X303064Y775618D01*
X300700Y776089D01*
X293660D01*
X291296Y775618D01*
X289291Y774279D01*
X287952Y772274D01*
X287481Y769910D01*
Y759170D01*
X287952Y756805D01*
X289291Y754801D01*
X291296Y753462D01*
X291329Y753455D01*
Y732225D01*
X291591Y730236D01*
X292359Y728382D01*
X293581Y726790D01*
X324765Y695605D01*
X326357Y694384D01*
X328211Y693616D01*
X330200Y693354D01*
X533400D01*
X535389Y693616D01*
X537243Y694384D01*
X538835Y695605D01*
X589635Y746405D01*
X590856Y747997D01*
X591624Y749851D01*
X591886Y751840D01*
Y893066D01*
X593434Y894614D01*
X594953Y897246D01*
X595740Y900181D01*
Y903219D01*
X594953Y906154D01*
X593434Y908786D01*
X591286Y910934D01*
X588654Y912454D01*
X585719Y913240D01*
D02*
G37*
G36*
X804615Y692855D02*
X782885D01*
Y671125D01*
X804615D01*
Y692855D01*
D02*
G37*
G36*
X795180Y667455D02*
X792320D01*
X789556Y666715D01*
X787079Y665284D01*
X785056Y663261D01*
X783625Y660784D01*
X782885Y658020D01*
Y655160D01*
X783625Y652396D01*
X785056Y649919D01*
X787079Y647896D01*
X789556Y646465D01*
X792320Y645725D01*
X795180D01*
X797944Y646465D01*
X800421Y647896D01*
X802444Y649919D01*
X803875Y652396D01*
X804615Y655160D01*
Y658020D01*
X803875Y660784D01*
X802444Y663261D01*
X800421Y665284D01*
X797944Y666715D01*
X795180Y667455D01*
D02*
G37*
G36*
X566580D02*
X563720D01*
X560956Y666715D01*
X558479Y665284D01*
X556456Y663261D01*
X555025Y660784D01*
X554285Y658020D01*
Y655160D01*
X555025Y652396D01*
X556456Y649919D01*
X558479Y647896D01*
X560956Y646465D01*
X563720Y645725D01*
X566580D01*
X569344Y646465D01*
X571821Y647896D01*
X573844Y649919D01*
X575275Y652396D01*
X576015Y655160D01*
Y658020D01*
X575275Y660784D01*
X573844Y663261D01*
X571821Y665284D01*
X569344Y666715D01*
X566580Y667455D01*
D02*
G37*
G36*
X993430Y645969D02*
X982690D01*
X980325Y645498D01*
X978321Y644159D01*
X976982Y642154D01*
X976511Y639790D01*
Y632750D01*
X976982Y630386D01*
X978321Y628381D01*
X980325Y627042D01*
X982690Y626571D01*
X993430D01*
X995795Y627042D01*
X997799Y628381D01*
X999138Y630386D01*
X999609Y632750D01*
Y639790D01*
X999138Y642154D01*
X997799Y644159D01*
X995795Y645498D01*
X993430Y645969D01*
D02*
G37*
G36*
X791210Y789860D02*
X782400D01*
Y780569D01*
X733705Y731875D01*
X732484Y730283D01*
X731716Y728429D01*
X731454Y726440D01*
Y660400D01*
X731716Y658411D01*
X732484Y656557D01*
X733705Y654965D01*
X782885Y605786D01*
Y604360D01*
X783625Y601596D01*
X785056Y599119D01*
X787079Y597096D01*
X789556Y595665D01*
X792320Y594925D01*
X792480D01*
Y605790D01*
X795020D01*
Y594925D01*
X795180D01*
X797944Y595665D01*
X800421Y597096D01*
X801430Y598104D01*
X838827D01*
X855914Y581017D01*
Y523240D01*
X856176Y521251D01*
X856944Y519397D01*
X858165Y517805D01*
X897535Y478435D01*
X899127Y477214D01*
X900981Y476446D01*
X902970Y476184D01*
X978185D01*
X978321Y475981D01*
X980325Y474642D01*
X982690Y474171D01*
X986790D01*
Y483870D01*
Y493569D01*
X982690D01*
X980325Y493098D01*
X978321Y491759D01*
X978185Y491556D01*
X906154D01*
X871286Y526424D01*
Y584200D01*
X871024Y586189D01*
X870256Y588043D01*
X869035Y589635D01*
X847445Y611225D01*
X845853Y612446D01*
X843999Y613214D01*
X842010Y613476D01*
X801430D01*
X800421Y614484D01*
X797944Y615915D01*
X795180Y616655D01*
X793754D01*
X791062Y619347D01*
X791720Y620486D01*
X792320Y620325D01*
X795180D01*
X797944Y621065D01*
X800421Y622496D01*
X802444Y624519D01*
X803875Y626996D01*
X804615Y629760D01*
Y632620D01*
X803875Y635384D01*
X802444Y637861D01*
X800421Y639884D01*
X797944Y641315D01*
X795180Y642055D01*
X792320D01*
X789556Y641315D01*
X787079Y639884D01*
X785056Y637861D01*
X783625Y635384D01*
X782885Y632620D01*
Y629760D01*
X783046Y629160D01*
X781907Y628502D01*
X746826Y663584D01*
Y723256D01*
X793269Y769700D01*
X802560D01*
Y778510D01*
X792480D01*
Y779780D01*
X791210D01*
Y789860D01*
D02*
G37*
G36*
X566580Y642055D02*
X563720D01*
X560956Y641315D01*
X558479Y639884D01*
X556456Y637861D01*
X555025Y635384D01*
X554285Y632620D01*
Y629760D01*
X555025Y626996D01*
X556456Y624519D01*
X558479Y622496D01*
X560956Y621065D01*
X563720Y620325D01*
X566580D01*
X569344Y621065D01*
X571821Y622496D01*
X573844Y624519D01*
X575275Y626996D01*
X576015Y629760D01*
Y632620D01*
X575275Y635384D01*
X573844Y637861D01*
X571821Y639884D01*
X569344Y641315D01*
X566580Y642055D01*
D02*
G37*
G36*
X993430Y620569D02*
X982690D01*
X980325Y620098D01*
X978321Y618759D01*
X976982Y616754D01*
X976511Y614390D01*
Y607350D01*
X976982Y604986D01*
X978321Y602981D01*
X980325Y601642D01*
X982690Y601171D01*
X993430D01*
X995795Y601642D01*
X997799Y602981D01*
X999138Y604986D01*
X999609Y607350D01*
Y614390D01*
X999138Y616754D01*
X997799Y618759D01*
X995795Y620098D01*
X993430Y620569D01*
D02*
G37*
G36*
X566580Y616655D02*
X563720D01*
X560956Y615915D01*
X558479Y614484D01*
X556456Y612461D01*
X555025Y609984D01*
X554285Y607220D01*
Y604360D01*
X555025Y601596D01*
X556456Y599119D01*
X558479Y597096D01*
X560956Y595665D01*
X563720Y594925D01*
X566580D01*
X569344Y595665D01*
X571821Y597096D01*
X573844Y599119D01*
X575275Y601596D01*
X576015Y604360D01*
Y607220D01*
X575275Y609984D01*
X573844Y612461D01*
X571821Y614484D01*
X569344Y615915D01*
X566580Y616655D01*
D02*
G37*
G36*
X993430Y595169D02*
X982690D01*
X980325Y594698D01*
X978321Y593359D01*
X976982Y591354D01*
X976511Y588990D01*
Y581950D01*
X976982Y579585D01*
X978321Y577581D01*
X980325Y576242D01*
X982690Y575771D01*
X993430D01*
X995795Y576242D01*
X997799Y577581D01*
X999138Y579585D01*
X999609Y581950D01*
Y588990D01*
X999138Y591354D01*
X997799Y593359D01*
X995795Y594698D01*
X993430Y595169D01*
D02*
G37*
G36*
X566580Y591255D02*
X563720D01*
X560956Y590515D01*
X558479Y589084D01*
X556456Y587061D01*
X555025Y584584D01*
X554285Y581820D01*
Y578960D01*
X555025Y576196D01*
X556456Y573719D01*
X558479Y571696D01*
X560956Y570265D01*
X563720Y569525D01*
X566580D01*
X569344Y570265D01*
X571821Y571696D01*
X573844Y573719D01*
X575275Y576196D01*
X576015Y578960D01*
Y581820D01*
X575275Y584584D01*
X573844Y587061D01*
X571821Y589084D01*
X569344Y590515D01*
X566580Y591255D01*
D02*
G37*
G36*
X687319Y913240D02*
X684281D01*
X681346Y912454D01*
X678714Y910934D01*
X676566Y908786D01*
X675046Y906154D01*
X674260Y903219D01*
Y900181D01*
X675046Y897246D01*
X676566Y894614D01*
X678114Y893066D01*
Y662940D01*
X678376Y660951D01*
X679144Y659097D01*
X680365Y657505D01*
X782885Y554986D01*
Y553560D01*
X783046Y552960D01*
X781907Y552302D01*
X668086Y666124D01*
Y893066D01*
X669634Y894614D01*
X671153Y897246D01*
X671940Y900181D01*
Y903219D01*
X671153Y906154D01*
X669634Y908786D01*
X667486Y910934D01*
X664854Y912454D01*
X661919Y913240D01*
X658881D01*
X655946Y912454D01*
X653314Y910934D01*
X651166Y908786D01*
X649647Y906154D01*
X648860Y903219D01*
Y900181D01*
X649647Y897246D01*
X651166Y894614D01*
X652714Y893066D01*
Y662940D01*
X652976Y660951D01*
X653744Y659097D01*
X654965Y657505D01*
X782885Y529586D01*
Y528160D01*
X783625Y525396D01*
X785056Y522919D01*
X787079Y520896D01*
X789556Y519465D01*
X792320Y518725D01*
X795180D01*
X797944Y519465D01*
X800421Y520896D01*
X802444Y522919D01*
X803875Y525396D01*
X804615Y528160D01*
Y531020D01*
X803875Y533784D01*
X802444Y536261D01*
X800421Y538284D01*
X797944Y539715D01*
X795180Y540455D01*
X793754D01*
X791062Y543147D01*
X791720Y544286D01*
X792320Y544125D01*
X795180D01*
X797944Y544865D01*
X800421Y546296D01*
X802444Y548319D01*
X803875Y550796D01*
X804615Y553560D01*
Y556420D01*
X803875Y559184D01*
X802444Y561661D01*
X800421Y563684D01*
X797944Y565115D01*
X795180Y565855D01*
X793754D01*
X791062Y568547D01*
X791720Y569686D01*
X792320Y569525D01*
X795180D01*
X797944Y570265D01*
X800421Y571696D01*
X802444Y573719D01*
X803875Y576196D01*
X804615Y578960D01*
Y581820D01*
X803875Y584584D01*
X802444Y587061D01*
X800421Y589084D01*
X797944Y590515D01*
X795180Y591255D01*
X792320D01*
X789556Y590515D01*
X787079Y589084D01*
X785056Y587061D01*
X783625Y584584D01*
X782885Y581820D01*
Y578960D01*
X783046Y578360D01*
X781907Y577702D01*
X693486Y666124D01*
Y893066D01*
X695034Y894614D01*
X696553Y897246D01*
X697340Y900181D01*
Y903219D01*
X696553Y906154D01*
X695034Y908786D01*
X692886Y910934D01*
X690254Y912454D01*
X687319Y913240D01*
D02*
G37*
G36*
X993430Y569769D02*
X982690D01*
X980325Y569298D01*
X978321Y567959D01*
X976982Y565955D01*
X976511Y563590D01*
Y556550D01*
X976982Y554185D01*
X978321Y552181D01*
X980325Y550842D01*
X982690Y550371D01*
X993430D01*
X995795Y550842D01*
X997799Y552181D01*
X999138Y554185D01*
X999609Y556550D01*
Y563590D01*
X999138Y565955D01*
X997799Y567959D01*
X995795Y569298D01*
X993430Y569769D01*
D02*
G37*
G36*
X566580Y565855D02*
X563720D01*
X560956Y565115D01*
X558479Y563684D01*
X556456Y561661D01*
X555025Y559184D01*
X554285Y556420D01*
Y553560D01*
X555025Y550796D01*
X556456Y548319D01*
X558479Y546296D01*
X560956Y544865D01*
X563720Y544125D01*
X566580D01*
X569344Y544865D01*
X571821Y546296D01*
X573844Y548319D01*
X575275Y550796D01*
X576015Y553560D01*
Y556420D01*
X575275Y559184D01*
X573844Y561661D01*
X571821Y563684D01*
X569344Y565115D01*
X566580Y565855D01*
D02*
G37*
G36*
Y540455D02*
X563720D01*
X560956Y539715D01*
X558479Y538284D01*
X556456Y536261D01*
X555025Y533784D01*
X554285Y531020D01*
Y528160D01*
X555025Y525396D01*
X556456Y522919D01*
X558479Y520896D01*
X560956Y519465D01*
X563720Y518725D01*
X566580D01*
X569344Y519465D01*
X571821Y520896D01*
X573844Y522919D01*
X575275Y525396D01*
X576015Y528160D01*
Y531020D01*
X575275Y533784D01*
X573844Y536261D01*
X571821Y538284D01*
X569344Y539715D01*
X566580Y540455D01*
D02*
G37*
G36*
X795180Y515055D02*
X795020D01*
Y505460D01*
X804615D01*
Y505620D01*
X803875Y508384D01*
X802444Y510861D01*
X800421Y512884D01*
X797944Y514315D01*
X795180Y515055D01*
D02*
G37*
G36*
X792480D02*
X792320D01*
X789556Y514315D01*
X787079Y512884D01*
X785056Y510861D01*
X783625Y508384D01*
X782885Y505620D01*
Y505460D01*
X792480D01*
Y515055D01*
D02*
G37*
G36*
X804615Y502920D02*
X795020D01*
Y493325D01*
X795180D01*
X797944Y494065D01*
X800421Y495496D01*
X802444Y497519D01*
X803875Y499996D01*
X804615Y502760D01*
Y502920D01*
D02*
G37*
G36*
X792480D02*
X782885D01*
Y502760D01*
X783625Y499996D01*
X785056Y497519D01*
X787079Y495496D01*
X789556Y494065D01*
X792320Y493325D01*
X792480D01*
Y502920D01*
D02*
G37*
G36*
X566580Y515055D02*
X563720D01*
X560956Y514315D01*
X558479Y512884D01*
X556456Y510861D01*
X555025Y508384D01*
X554285Y505620D01*
Y502760D01*
X555025Y499996D01*
X556456Y497519D01*
X558479Y495496D01*
X560956Y494065D01*
X563720Y493325D01*
X566580D01*
X569344Y494065D01*
X571821Y495496D01*
X573844Y497519D01*
X575275Y499996D01*
X576015Y502760D01*
Y505620D01*
X575275Y508384D01*
X573844Y510861D01*
X571821Y512884D01*
X569344Y514315D01*
X566580Y515055D01*
D02*
G37*
G36*
X993430Y493569D02*
X989330D01*
Y485140D01*
X999609D01*
Y487390D01*
X999138Y489754D01*
X997799Y491759D01*
X995795Y493098D01*
X993430Y493569D01*
D02*
G37*
G36*
X999609Y482600D02*
X989330D01*
Y474171D01*
X993430D01*
X995795Y474642D01*
X997799Y475981D01*
X999138Y477985D01*
X999609Y480350D01*
Y482600D01*
D02*
G37*
%LPD*%
D31*
X528320Y1005840D02*
X856687D01*
X914400Y810260D02*
Y948127D01*
X856687Y1005840D02*
X914400Y948127D01*
Y810260D02*
X934720Y789940D01*
X980440D01*
X914400Y533400D02*
Y769620D01*
X934720Y789940D01*
X965200Y767080D02*
X1008380D01*
X932995Y565605D02*
Y734875D01*
X965200Y767080D01*
X1036320Y795020D02*
Y1053446D01*
X1005186Y1084580D02*
X1036320Y1053446D01*
X1008380Y767080D02*
X1036320Y795020D01*
X1043940Y739140D02*
X1061720Y721360D01*
Y398780D02*
Y721360D01*
X1016000Y739140D02*
X1043940D01*
X1061720Y756920D02*
Y1158240D01*
X1043940Y739140D02*
X1061720Y756920D01*
X1032510Y1187450D02*
X1061720Y1158240D01*
X424180Y812800D02*
Y847090D01*
X980440Y739140D02*
X1016000D01*
Y467360D02*
Y739140D01*
X932995Y565605D02*
X963930Y534670D01*
X793750Y605790D02*
X842010D01*
X863600Y523240D02*
Y584200D01*
X842010Y605790D02*
X863600Y584200D01*
Y523240D02*
X902970Y483870D01*
X988060D01*
X938530Y509270D02*
X988060D01*
X914400Y533400D02*
X938530Y509270D01*
X533400Y701040D02*
X584200Y751840D01*
X299015Y732225D02*
X330200Y701040D01*
X533400D01*
X537836Y1082040D02*
X627380D01*
X509896Y1054100D02*
X537836Y1082040D01*
X627380D02*
X689610Y1144270D01*
X508000Y1026160D02*
Y1054100D01*
X1007110Y458470D02*
X1016000Y467360D01*
X431800Y965200D02*
Y1054100D01*
X474980Y1097280D01*
X424180Y764540D02*
Y812800D01*
X426720Y810260D02*
X508000D01*
X424180Y812800D02*
X426720Y810260D01*
X329620Y736600D02*
X518160D01*
X558800Y777240D01*
X322580Y743640D02*
X329620Y736600D01*
X977900Y1163320D02*
Y1187450D01*
X869131Y1165474D02*
X896685Y1137920D01*
X786130Y1165474D02*
X869131D01*
X896685Y1137920D02*
X977900D01*
X689610Y1144270D02*
X831850D01*
X863600Y1112520D02*
X977900D01*
X831850Y1144270D02*
X863600Y1112520D01*
X853440Y1084580D02*
X977900D01*
X980440D02*
X1005186D01*
X977900Y1087120D02*
X980440Y1084580D01*
X795020Y1026160D02*
X853440Y1084580D01*
X353060Y1140460D02*
X457200D01*
X466913Y1120586D02*
X469900Y1117600D01*
X466913Y1120586D02*
Y1130747D01*
X457200Y1140460D02*
X466913Y1130747D01*
X330200Y1120700D02*
X335120Y1125620D01*
X338220D02*
X353060Y1140460D01*
X335120Y1125620D02*
X338220D01*
X355990Y1054100D02*
X419100Y1117210D01*
Y1117600D01*
X355600Y1054100D02*
X355990D01*
X419100Y1117600D02*
X444500D01*
X474980Y1097280D02*
X586740D01*
X612140Y1122680D01*
Y1125220D02*
X614680Y1127760D01*
X612140Y1122680D02*
Y1125220D01*
X614680Y1127760D02*
Y1129030D01*
X617220Y1131570D01*
X618490D01*
X674370Y1187450D02*
X977900D01*
X618490Y1131570D02*
X674370Y1187450D01*
X736600Y1125220D02*
X787400D01*
X508000Y1054100D02*
X509896D01*
X508000Y1026160D02*
X528320Y1005840D01*
X708016Y1125220D02*
X736600D01*
X636896Y1054100D02*
X708016Y1125220D01*
X635000Y1054100D02*
X636896D01*
X1031240Y368300D02*
X1061720Y398780D01*
X546100Y1026160D02*
X795020D01*
X739140Y660400D02*
X793750Y605790D01*
X739140Y660400D02*
Y726440D01*
X792480Y779780D01*
Y805180D02*
Y848360D01*
Y805180D02*
X793115Y805815D01*
X607060Y975360D02*
X792480D01*
X533400Y901700D02*
X607060Y975360D01*
X347980Y894080D02*
X355600Y901700D01*
X347980Y764540D02*
Y894080D01*
X373380Y847090D02*
Y891958D01*
X381000Y899578D01*
Y901700D01*
X373380Y764540D02*
Y847090D01*
X299015Y732225D02*
Y762705D01*
X297180Y764540D02*
X299015Y762705D01*
X322580Y743640D02*
Y764540D01*
X977900Y1187450D02*
X1032510D01*
X988060Y458470D02*
X1007110D01*
X607060Y574040D02*
X812800Y368300D01*
X1031240D01*
X791845Y847725D02*
X792480Y848360D01*
X607060Y574040D02*
Y647700D01*
X576015Y678745D02*
X607060Y647700D01*
X565150Y681990D02*
X568395Y678745D01*
X576015D01*
X963930Y534670D02*
X988060D01*
X685800Y662940D02*
X793750Y554990D01*
X660400Y662940D02*
Y901700D01*
X685800Y662940D02*
Y901700D01*
X660400Y662940D02*
X793750Y529590D01*
X584200Y751840D02*
Y901700D01*
X558800Y777240D02*
Y901700D01*
X533400Y1038860D02*
X546100Y1026160D01*
X533400Y1038860D02*
Y1054100D01*
D32*
X980440Y739140D02*
D03*
Y764540D02*
D03*
Y789940D02*
D03*
Y815340D02*
D03*
Y840740D02*
D03*
Y866140D02*
D03*
X977900Y1163320D02*
D03*
Y1137920D02*
D03*
Y1112520D02*
D03*
Y1087120D02*
D03*
Y1061720D02*
D03*
D33*
X988060Y458470D02*
D03*
Y483870D02*
D03*
Y509270D02*
D03*
Y534670D02*
D03*
Y560070D02*
D03*
Y585470D02*
D03*
Y610870D02*
D03*
Y636270D02*
D03*
D34*
X355600Y901700D02*
D03*
D35*
X381000D02*
D03*
X406400D02*
D03*
X431800D02*
D03*
X457200D02*
D03*
X482600D02*
D03*
X508000D02*
D03*
X533400D02*
D03*
X558800D02*
D03*
X584200D02*
D03*
X609600D02*
D03*
X635000D02*
D03*
X660400D02*
D03*
X685800D02*
D03*
X711200D02*
D03*
Y1054100D02*
D03*
X685800D02*
D03*
X660400D02*
D03*
X635000D02*
D03*
X609600D02*
D03*
X584200D02*
D03*
X558800D02*
D03*
X533400D02*
D03*
X508000D02*
D03*
X482600D02*
D03*
X457200D02*
D03*
X431800D02*
D03*
X406400D02*
D03*
X381000D02*
D03*
X355600D02*
D03*
D36*
X323850Y843280D02*
D03*
X349250D02*
D03*
X374650D02*
D03*
X400050D02*
D03*
X425450D02*
D03*
X450850D02*
D03*
X614680Y1127760D02*
D03*
X741680D02*
D03*
D37*
X786130Y1125474D02*
D03*
Y1165474D02*
D03*
D38*
X469900Y1117600D02*
D03*
X444500D02*
D03*
X419100D02*
D03*
D39*
X449580Y764540D02*
D03*
X424180D02*
D03*
X398780D02*
D03*
X373380D02*
D03*
X347980D02*
D03*
X322580D02*
D03*
X297180D02*
D03*
D40*
X330200Y1120700D02*
D03*
Y1155700D02*
D03*
D41*
X565150Y504190D02*
D03*
Y529590D02*
D03*
Y554990D02*
D03*
Y580390D02*
D03*
Y605790D02*
D03*
Y631190D02*
D03*
Y656590D02*
D03*
X793750D02*
D03*
Y631190D02*
D03*
Y605790D02*
D03*
Y580390D02*
D03*
Y554990D02*
D03*
Y529590D02*
D03*
Y504190D02*
D03*
D42*
X565150Y681990D02*
D03*
X793750D02*
D03*
D43*
X792480Y779780D02*
D03*
D44*
Y805180D02*
D03*
D45*
Y975360D02*
D03*
Y848360D02*
D03*
D46*
X431800Y965200D02*
D03*
X508000Y810260D02*
D03*
M02*
