M48
;Layer_Color=9474304
;FILE_FORMAT=2:4
METRIC,LZ
;TYPE=PLATED
T1F00S00C0.6500
T2F00S00C0.7112
T3F00S00C0.7620
T4F00S00C0.8000
T5F00S00C0.8890
T6F00S00C0.9000
T7F00S00C1.0000
%
T01
X3302Y11207
Y11557
T02
X508Y81026
X4318Y9652
T03
X98044Y73914
Y76454
Y78994
Y81534
Y84074
Y86614
X9779Y106172
Y108712
Y111252
Y113792
Y116332
T04
X78613Y1125474
Y1165474
T05
X98806Y45847
Y48387
Y50927
Y53467
Y56007
Y58547
Y61087
Y63627
X44958Y76454
X42418
X39878
X37338
X34798
X32258
X29718
X32385Y84328
X34925
X37465
X40005
X42545
X45085
X4445Y11176
X4699
X4191
X61468Y112776
X74168
X79248Y97536
Y84836
T06
X79375Y50419
Y52959
Y55499
Y58039
Y60579
Y63119
Y65659
Y68199
X56515
Y65659
Y63119
Y60579
Y58039
Y55499
Y52959
Y50419
X381Y9017
X3556
Y10541
X381
X4064
X4318
X4572
X4826
X508
X5334
X5588
X5842
X6096
X635
X6604
X6858
X7112
Y9017
X6858
X6604
X635
X6096
X5842
X5588
X5334
X508
X4826
X4572
X4318
X4064
T07
X79248Y77978
Y80518
M30
