M48
;Layer_Color=9474304
;FILE_FORMAT=4:4
METRIC,LZ
;TYPE=PLATED
T1F00S00C0.6500
T2F00S00C0.7112
T3F00S00C0.7620
T4F00S00C0.8000
T5F00S00C0.8890
T6F00S00C0.9000
T7F00S00C1.0000
%
T01
X003302Y011207
Y011557
T02
X00508Y0081026
X004318Y009652
T03
X0098044Y0073914
Y0076454
Y0078994
Y0081534
Y0084074
Y0086614
X009779Y0106172
Y0108712
Y0111252
Y0113792
Y0116332
T04
X0078613Y01125474
Y01165474
T05
X0098806Y0045847
Y0048387
Y0050927
Y0053467
Y0056007
Y0058547
Y0061087
Y0063627
X0044958Y0076454
X0042418
X0039878
X0037338
X0034798
X0032258
X0029718
X0032385Y0084328
X0034925
X0037465
X0040005
X0042545
X0045085
X004445Y011176
X004699
X004191
X0061468Y0112776
X0074168
X0079248Y0097536
Y0084836
T06
X0079375Y0050419
Y0052959
Y0055499
Y0058039
Y0060579
Y0063119
Y0065659
Y0068199
X0056515
Y0065659
Y0063119
Y0060579
Y0058039
Y0055499
Y0052959
Y0050419
X00381Y009017
X003556
Y010541
X00381
X004064
X004318
X004572
X004826
X00508
X005334
X005588
X005842
X006096
X00635
X006604
X006858
X007112
Y009017
X006858
X006604
X00635
X006096
X005842
X005588
X005334
X00508
X004826
X004572
X004318
X004064
T07
X0079248Y0077978
Y0080518
M30
